<svg xmlns="http://www.w3.org/2000/svg" viewBox="0 0 5 5" fill="none" shape-rendering="crispEdges"><desc>"Identicon" by "Florian Körner", licensed under "CC0 1.0". / Remix of the original. - Created with dicebear.com</desc><metadata xmlns:dc="http://purl.org/dc/elements/1.1/" xmlns:cc="http://creativecommons.org/ns#" xmlns:rdf="http://www.w3.org/1999/02/22-rdf-syntax-ns#"><rdf:RDF><cc:Work><dc:title>Identicon</dc:title><dc:creator><cc:Agent rdf:about="https://dicebear.com"><dc:title>Florian Körner</dc:title></cc:Agent></dc:creator><dc:source>https://dicebear.com</dc:source><cc:license rdf:resource="https://creativecommons.org/publicdomain/zero/1.0/" /></cc:Work></rdf:RDF></metadata><mask id="viewboxMask"><rect width="5" height="5" rx="0" ry="0" x="0" y="0" fill="#fff" /></mask><g mask="url(#viewboxMask)"><path d="M2 0H1v1h1V0ZM4 0H3v1h1V0Z" fill="#fb8c00"/><path fill="#fb8c00" d="M0 1h5v1H0z"/><path d="M0 2h1v1H0V2ZM4 2h1v1H4V2ZM3 2H2v1h1V2Z" fill="#fb8c00"/><path d="M1 3H0v1h1V3ZM5 3H4v1h1V3Z" fill="#fb8c00"/><path d="M2 4H0v1h2V4ZM5 4H3v1h2V4Z" fill="#fb8c00"/></g></svg>